<svg width="248" height="248" viewBox="0 0 248 248" fill="none" xmlns="http://www.w3.org/2000/svg">
<path d="M124 0C93.6649 -3.61742e-07 64.3822 11.1198 41.6933 31.2552C19.0044 51.3905 4.48355 79.1443 0.878668 109.264C-2.72621 139.385 4.835 169.781 22.1314 194.702C39.4278 219.623 65.2594 237.339 94.7377 244.498C124.216 251.656 155.296 247.761 182.096 233.549C208.895 219.336 229.556 195.793 240.167 167.374C250.778 138.956 250.603 107.633 239.676 79.3344C228.749 51.0357 207.828 27.724 180.872 13.811L175.196 24.8069C199.463 37.3314 218.296 58.3168 228.133 83.7916C237.969 109.266 238.126 137.463 228.574 163.046C219.022 188.629 200.423 209.823 176.298 222.617C152.173 235.411 124.194 238.918 97.6578 232.473C71.1211 226.029 47.8673 210.081 32.2969 187.647C16.7265 165.213 9.91987 137.849 13.165 110.735C16.4102 83.6205 29.482 58.6362 49.9067 40.5102C70.3315 22.3842 96.6921 12.374 124 12.374V0Z" fill="#DC1F25" fill-opacity="0.6"/>
</svg>
